# xmcd CD database file
# Copyright (C) 1993-1998 Ti Kan
#
# Track frame offsets:
#	182
#	14685
#	27427
#	40807
#	50965
#	64467
#	75732
#	91647
#	105670
#	120717
#	141840
#	156585
#	170837
#	184540
#	198782
#	211127
#	224692
#	236812
#	249950
#	261867
#
# Disc length: 3671 seconds
#
# Revision: 1
# Processed by: cddbd v1.4b41PL1 Copyright (c) Steve Scherf et al.
# Submitted via: CDValet v3.31 - Copyright (c) 1997 Greg Leichner
#
DISCID=2a0e5514
DTITLE=Various Artist - 60 Great Blues Recordings - Disc 2
DYEAR=1900
DGENRE=
TTITLE0=I Believe/Elmore James
TTITLE1=Please Love Me/B B King
TTITLE2=Jockey Blues/Big Joe Turner
TTITLE3=Playful Baby/Big Joe Turner
TTITLE4=Houston Jump/Floyd Dixon
TTITLE5=Best Friend/Mickey Champion
TTITLE6=Johnny's Lowdown Blues/Johnny Fuller
TTITLE7=Riding In The Moonlight/Howling Wolf
TTITLE8=How Many More Times/Smokey Wilson
TTITLE9=Straighten Up Baby/Smokey Wilson
TTITLE10=Standing In The Backdoor Crying/Lafayette Thomas
TTITLE11=Tired Of Everybody/Johnny Parker
TTITLE12=Dr Brown/James Reed
TTITLE13=Boogie Chillun/John Lee Hooker
TTITLE14=Lonesome Dog Blues/Lightnin' Hopkins
TTITLE15=Mississippi Blues/Floyd Dixon Trio
TTITLE16=Walkin' Talkin' Blues/Joe Hill Louis
TTITLE17=John Henry/Pinetop Slim
TTITLE18=Same Old Lonesome Day/Lowell Fulsom
TTITLE19=Crawling Kingsnake/John Lee Hooker
EXTD=Input by Bill (whall@netcomuk.co.uk)
EXTT0=
EXTT1=
EXTT2=
EXTT3=
EXTT4=
EXTT5=
EXTT6=
EXTT7=
EXTT8=
EXTT9=
EXTT10=
EXTT11=
EXTT12=
EXTT13=
EXTT14=
EXTT15=
EXTT16=
EXTT17=
EXTT18=
EXTT19=
PLAYORDER=
